{"asset":{"generator":"Mi²Gltf","version":"2.0"},"extensionsUsed":["KHR_animation_pointer","KHR_texture_transform"],"extensionsRequired":["KHR_animation_pointer"],"scenes":[{"name":"Scene","nodes":[3,1,2,4,5,0]}],"nodes":[{"mesh":0,"translation":[8.0,8.0,8.0],"rotation":[0.0,0.0,0.19509032,0.98078525]},{"mesh":1,"translation":[16.0,0.0,0.0],"rotation":[0.0,0.0,0.0,1.0]},{"mesh":2,"translation":[8.0,8.0,8.0],"rotation":[0.0,0.0,-0.19509032,0.98078525]},{"mesh":3,"translation":[8.0,8.0,8.0],"rotation":[0.19509032,0.0,0.0,0.98078525]},{"mesh":4},{"mesh":5,"translation":[8.0,8.0,8.0],"rotation":[-0.19509032,0.0,0.0,0.98078525]}],"meshes":[{"primitives":[{"indices":25,"material":0,"attributes":{"POSITION":28,"NORMAL":8,"TEXCOORD_0":9}}]},{"primitives":[{"indices":25,"material":0,"attributes":{"POSITION":22,"NORMAL":5,"TEXCOORD_0":2}},{"indices":25,"material":0,"attributes":{"POSITION":0,"NORMAL":8,"TEXCOORD_0":26}},{"indices":25,"material":0,"attributes":{"POSITION":11,"NORMAL":20,"TEXCOORD_0":12}},{"indices":25,"material":0,"attributes":{"POSITION":4,"NORMAL":3,"TEXCOORD_0":29}}]},{"primitives":[{"indices":25,"material":0,"attributes":{"POSITION":24,"NORMAL":3,"TEXCOORD_0":14}}]},{"primitives":[{"indices":25,"material":0,"attributes":{"POSITION":6,"NORMAL":5,"TEXCOORD_0":23}}]},{"primitives":[{"indices":25,"material":0,"attributes":{"POSITION":27,"NORMAL":5,"TEXCOORD_0":21}},{"indices":25,"material":0,"attributes":{"POSITION":19,"NORMAL":8,"TEXCOORD_0":10}},{"indices":25,"material":0,"attributes":{"POSITION":30,"NORMAL":20,"TEXCOORD_0":17}},{"indices":25,"material":0,"attributes":{"POSITION":7,"NORMAL":3,"TEXCOORD_0":13}}]},{"primitives":[{"indices":25,"material":0,"attributes":{"POSITION":15,"NORMAL":20,"TEXCOORD_0":16}}]}],"accessors":[{"bufferView":0,"count":4,"type":"VEC3","componentType":5126,"min":[-16.0,0.0,0.0],"max":[-16.0,22.0,16.0]},{"bufferView":1,"count":4,"type":"VEC3","componentType":5126,"min":[0.0,-1.0,0.0],"max":[0.0,-1.0,0.0]},{"bufferView":2,"count":4,"type":"VEC2","componentType":5126,"min":[0.0,0.0],"max":[1.0,1.0]},{"bufferView":3,"count":4,"type":"VEC3","componentType":5126,"min":[-1.0,0.0,0.0],"max":[-1.0,0.0,0.0]},{"bufferView":4,"count":4,"type":"VEC3","componentType":5126,"min":[0.0,0.0,0.0],"max":[0.0,22.0,16.0]},{"bufferView":5,"count":4,"type":"VEC3","componentType":5126,"min":[0.0,0.0,-1.0],"max":[0.0,0.0,-1.0]},{"bufferView":6,"count":4,"type":"VEC3","componentType":5126,"min":[-8.0,-8.0,-0.8000002],"max":[8.0,14.4,-0.8000002]},{"bufferView":7,"count":4,"type":"VEC3","componentType":5126,"min":[0.0,0.0,0.0],"max":[0.0,22.0,16.0]},{"bufferView":8,"count":4,"type":"VEC3","componentType":5126,"min":[1.0,0.0,0.0],"max":[1.0,0.0,0.0]},{"bufferView":9,"count":4,"type":"VEC2","componentType":5126,"min":[0.0,0.0],"max":[1.0,1.0]},{"bufferView":10,"count":4,"type":"VEC2","componentType":5126,"min":[0.0,0.0],"max":[1.0,1.0]},{"bufferView":11,"count":4,"type":"VEC3","componentType":5126,"min":[-16.0,0.0,16.0],"max":[0.0,22.0,16.0]},{"bufferView":12,"count":4,"type":"VEC2","componentType":5126,"min":[0.0,0.0],"max":[1.0,1.0]},{"bufferView":13,"count":4,"type":"VEC2","componentType":5126,"min":[0.0,0.0],"max":[1.0,1.0]},{"bufferView":14,"count":4,"type":"VEC2","componentType":5126,"min":[0.0,0.0],"max":[1.0,1.0]},{"bufferView":15,"count":4,"type":"VEC3","componentType":5126,"min":[-8.0,-8.0,0.8000002],"max":[8.0,14.4,0.8000002]},{"bufferView":16,"count":4,"type":"VEC2","componentType":5126,"min":[0.0,0.0],"max":[1.0,1.0]},{"bufferView":17,"count":4,"type":"VEC2","componentType":5126,"min":[0.0,0.0],"max":[1.0,1.0]},{"bufferView":18,"count":4,"type":"VEC3","componentType":5126,"min":[0.0,1.0,0.0],"max":[0.0,1.0,0.0]},{"bufferView":19,"count":4,"type":"VEC3","componentType":5126,"min":[16.0,0.0,0.0],"max":[16.0,22.0,16.0]},{"bufferView":20,"count":4,"type":"VEC3","componentType":5126,"min":[0.0,0.0,1.0],"max":[0.0,0.0,1.0]},{"bufferView":21,"count":4,"type":"VEC2","componentType":5126,"min":[0.0,0.0],"max":[1.0,1.0]},{"bufferView":22,"count":4,"type":"VEC3","componentType":5126,"min":[-16.0,0.0,0.0],"max":[0.0,22.0,0.0]},{"bufferView":23,"count":4,"type":"VEC2","componentType":5126,"min":[0.0,0.0],"max":[1.0,1.0]},{"bufferView":24,"count":4,"type":"VEC3","componentType":5126,"min":[0.8000002,-8.0,-8.0],"max":[0.8000002,14.4,8.0]},{"bufferView":25,"count":6,"type":"SCALAR","componentType":5123,"min":[0.0],"max":[3.0]},{"bufferView":26,"count":4,"type":"VEC2","componentType":5126,"min":[0.0,0.0],"max":[1.0,1.0]},{"bufferView":27,"count":4,"type":"VEC3","componentType":5126,"min":[0.0,0.0,0.0],"max":[16.0,22.0,0.0]},{"bufferView":28,"count":4,"type":"VEC3","componentType":5126,"min":[-0.8000002,-8.0,-8.0],"max":[-0.8000002,14.4,8.0]},{"bufferView":29,"count":4,"type":"VEC2","componentType":5126,"min":[0.0,0.0],"max":[1.0,1.0]},{"bufferView":30,"count":4,"type":"VEC3","componentType":5126,"min":[0.0,0.0,16.0],"max":[16.0,22.0,16.0]},{"bufferView":31,"count":32,"type":"VEC2","componentType":5126,"min":[0.0,0.0],"max":[0.0,0.96875]},{"bufferView":31,"byteOffset":256,"count":32,"type":"SCALAR","componentType":5126,"min":[0.0],"max":[1.5499996]}],"buffers":[{"uri":"data:application/octet-stream;base64,","byteLength":1260},{"uri":"data:application/octet-stream;base64,","byteLength":384}],"animations":[{"samplers":[{"input":32,"output":31,"interpolation":"STEP"}],"channels":[{"sampler":0,"target":{"extensions":{"KHR_animation_pointer":{"pointer":"/materials/0/pbrMetallicRoughness/baseColorTexture/extensions/KHR_texture_transform/offset"}},"path":"pointer"}}]}],"samplers":[{"wrapT":33071,"wrapS":33071,"magFilter":9728,"minFilter":9728}],"images":[{"uri":"data:image/png;base64,"}],"textures":[{"source":0,"sampler":0}],"materials":[{"name":"fire_color!tinted","alphaCutoff":0.1,"alphaMode":"MASK","pbrMetallicRoughness":{"baseColorTexture":{"extensions":{"KHR_texture_transform":{"offset":[0.0,0.0],"scale":[1.0,0.03125]}},"index":0},"metallicFactor":0.0,"roughnessFactor":1.0}}],"scene":0,"bufferViews":[{"buffer":0,"target":34962,"byteLength":48},{"buffer":0,"byteOffset":48,"target":34962,"byteLength":48},{"buffer":0,"byteOffset":96,"target":34962,"byteLength":32},{"buffer":0,"byteOffset":128,"target":34962,"byteLength":48},{"buffer":0,"byteOffset":176,"target":34962,"byteLength":48},{"buffer":0,"byteOffset":224,"target":34962,"byteLength":48},{"buffer":0,"byteOffset":272,"target":34962,"byteLength":48},{"buffer":0,"byteOffset":320,"target":34962,"byteLength":48},{"buffer":0,"byteOffset":368,"target":34962,"byteLength":48},{"buffer":0,"byteOffset":416,"target":34962,"byteLength":32},{"buffer":0,"byteOffset":448,"target":34962,"byteLength":32},{"buffer":0,"byteOffset":480,"target":34962,"byteLength":48},{"buffer":0,"byteOffset":528,"target":34962,"byteLength":32},{"buffer":0,"byteOffset":560,"target":34962,"byteLength":32},{"buffer":0,"byteOffset":592,"target":34962,"byteLength":32},{"buffer":0,"byteOffset":624,"target":34962,"byteLength":48},{"buffer":0,"byteOffset":672,"target":34962,"byteLength":32},{"buffer":0,"byteOffset":704,"target":34962,"byteLength":32},{"buffer":0,"byteOffset":736,"target":34962,"byteLength":48},{"buffer":0,"byteOffset":784,"target":34962,"byteLength":48},{"buffer":0,"byteOffset":832,"target":34962,"byteLength":48},{"buffer":0,"byteOffset":880,"target":34962,"byteLength":32},{"buffer":0,"byteOffset":912,"target":34962,"byteLength":48},{"buffer":0,"byteOffset":960,"target":34962,"byteLength":32},{"buffer":0,"byteOffset":992,"target":34962,"byteLength":48},{"buffer":0,"byteOffset":1040,"target":34963,"byteLength":12},{"buffer":0,"byteOffset":1052,"target":34962,"byteLength":32},{"buffer":0,"byteOffset":1084,"target":34962,"byteLength":48},{"buffer":0,"byteOffset":1132,"target":34962,"byteLength":48},{"buffer":0,"byteOffset":1180,"target":34962,"byteLength":32},{"buffer":0,"byteOffset":1212,"target":34962,"byteLength":48},{"buffer":1,"byteLength":384}]}